<?xml version="1.0" encoding="utf-8"?>
<!-- Generator: Adobe Illustrator 24.1.1, SVG Export Plug-In . SVG Version: 6.00 Build 0)  -->
<svg version="1.1" id="Layer_1" xmlns="http://www.w3.org/2000/svg" xmlns:xlink="http://www.w3.org/1999/xlink" x="0px" y="0px"
	 viewBox="0 0 512 512" style="enable-background:new 0 0 512 512;" xml:space="preserve">
<g>
	<path d="M384,448v-21.3c-23.5,0-42.6-19.2-42.7-42.7c0-23.5,19.2-42.6,42.7-42.7c23.5,0,42.6,19.2,42.7,42.7
		c0,11.8-4.7,22.3-12.5,30.1c-7.8,7.8-18.4,12.5-30.1,12.5V448v21.3c47.1,0,85.3-38.2,85.3-85.3c0-47.1-38.2-85.3-85.3-85.3
		c-47.1,0-85.3,38.2-85.3,85.3c0,47.1,38.2,85.3,85.3,85.3V448z M512,384v-21.3h-64v42.7h64v-42.7V384v-21.3h-64v42.7h64v-42.7V384z
		 M429.3,429.3l-15.1,15.1l45.3,45.3l30.2-30.2l-45.3-45.3l-30.2,30.2L429.3,429.3l-15.1,15.1l45.3,45.3l30.2-30.2l-45.3-45.3
		l-30.2,30.2L429.3,429.3z M384,512h21.3v-64h-42.7v64h42.7H384h21.3v-64h-42.7v64h42.7H384z M293.5,474.5l15.1,15.1l45.2-45.3
		l-30.2-30.2l-45.2,45.3l30.2,30.2L293.5,474.5l15.1,15.1l45.2-45.3l-30.2-30.2l-45.2,45.3l30.2,30.2L293.5,474.5z M256,384v21.3h64
		v-42.7h-64v42.7V384v21.3h64v-42.7h-64v42.7V384z M338.7,338.8l15.1-15.1l-45.2-45.3l-30.2,30.2l45.2,45.3l30.2-30.2L338.7,338.8
		l15.1-15.1l-45.2-45.3l-30.2,30.2l45.2,45.3l30.2-30.2L338.7,338.8z M384,320h21.3v-64h-42.7v64h42.7H384h21.3v-64h-42.7v64h42.7
		H384z M429.3,338.8l15.1,15.1l45.3-45.3l-30.2-30.2l-45.3,45.3l30.2,30.2L429.3,338.8l15.1,15.1l45.3-45.3l-30.2-30.2l-45.3,45.3
		l30.2,30.2L429.3,338.8z M280.5,250.4c-30.6-26.3-68.6-37.3-109.9-37.1c-44.8,0-87.7,11.7-119.8,40.3c-16,14.2-28.9,32.5-37.6,54.4
		C4.5,329.9,0,355.3,0,384v128h234.7v-42.7l-192,0V384c0-24.3,3.8-44.1,10.2-60.2c9.7-24,24.8-40.1,44.6-51.2
		c19.9-11,45-16.6,73.2-16.6c34.5,0.2,60.1,8.2,82.1,26.9L280.5,250.4L280.5,250.4z M170.7,234.7V256c70.7,0,128-57.3,128-128
		c0-70.7-57.3-128-128-128c-70.7,0-128,57.3-128,128c0,70.7,57.3,128,128,128V234.7v-21.3c-23.6,0-44.8-9.5-60.3-25
		c-15.5-15.5-25-36.7-25-60.3c0-23.6,9.5-44.8,25-60.3c15.5-15.5,36.7-25,60.3-25c23.6,0,44.8,9.5,60.3,25
		c15.5,15.5,25,36.7,25,60.3c0,23.6-9.5,44.8-25,60.3c-15.5,15.5-36.7,25-60.3,25V234.7z"/>
</g>
</svg>
